<?xml version="1.0" encoding="utf-8"?>
<!-- Generator: Adobe Illustrator 16.0.0, SVG Export Plug-In . SVG Version: 6.00 Build 0)  -->
<!DOCTYPE svg PUBLIC "-//W3C//DTD SVG 1.1//EN" "http://www.w3.org/Graphics/SVG/1.1/DTD/svg11.dtd">
<svg version="1.1" id="Layer_1" xmlns="http://www.w3.org/2000/svg" xmlns:xlink="http://www.w3.org/1999/xlink" x="0px" y="0px"
	 width="300px" height="300px" viewBox="0 0 300 300" enable-background="new 0 0 300 300" xml:space="preserve">
<g>
	<g>
		<path fill="#FFE60B" d="M109.602,90.188c-2.594,0-4.697,2.103-4.697,4.697c0,5.698-4.636,10.334-10.334,10.334
			c-5.698,0-10.334-4.636-10.334-10.334c0-5.698,4.636-10.334,10.334-10.334c2.594,0,4.697-2.103,4.697-4.698
			c0-2.594-2.103-4.697-4.697-4.697c-10.879,0-19.729,8.851-19.729,19.729c0,10.878,8.851,19.729,19.729,19.729
			c10.878,0,19.729-8.851,19.729-19.729C114.299,92.291,112.196,90.188,109.602,90.188z"/>
	</g>
</g>
<g>
	<g>
		<path fill="#FFE60B" d="M109.602,145.302c-2.594,0-4.697,2.103-4.697,4.698c0,5.698-4.636,10.334-10.334,10.334
			c-5.698,0-10.335-4.636-10.335-10.334s4.636-10.334,10.334-10.334c2.594,0,4.697-2.103,4.697-4.697
			c0-2.595-2.103-4.698-4.697-4.698c-10.879,0-19.729,8.851-19.729,19.729s8.851,19.729,19.729,19.729
			c10.878,0,19.729-8.851,19.729-19.729C114.299,147.406,112.196,145.302,109.602,145.302z"/>
	</g>
</g>
<g>
	<g>
		<path fill="#FFE60B" d="M164.717,155.324h-35.074c-2.594,0-4.697,2.103-4.697,4.697c0,2.594,2.103,4.696,4.697,4.696h35.074
			c2.594,0,4.696-2.104,4.696-4.696C169.413,157.427,167.311,155.324,164.717,155.324z"/>
	</g>
</g>
<g>
	<g>
		<path fill="#FFE60B" d="M164.717,135.282h-35.074c-2.594,0-4.697,2.103-4.697,4.697c0,2.595,2.103,4.698,4.697,4.698h35.074
			c2.594,0,4.696-2.103,4.696-4.698C169.413,137.385,167.311,135.282,164.717,135.282z"/>
	</g>
</g>
<g>
	<g>
		<path fill="#FFE60B" d="M154.695,210.438h-25.052c-2.594,0-4.697,2.104-4.697,4.698c0,2.595,2.103,4.697,4.697,4.697h25.052
			c2.594,0,4.697-2.103,4.697-4.697C159.393,212.542,157.289,210.438,154.695,210.438z"/>
	</g>
</g>
<g>
	<g>
		<path fill="#FFE60B" d="M164.717,190.396h-35.074c-2.594,0-4.697,2.104-4.697,4.696c0,2.595,2.103,4.697,4.697,4.697h35.074
			c2.594,0,4.696-2.103,4.696-4.697C169.413,192.5,167.311,190.396,164.717,190.396z"/>
	</g>
</g>
<g>
	<g>
		<path fill="#FFE60B" d="M209.811,100.208h-80.167c-2.594,0-4.697,2.103-4.697,4.698c0,2.594,2.103,4.697,4.697,4.697h80.167
			c2.594,0,4.697-2.103,4.697-4.697C214.507,102.312,212.404,100.208,209.811,100.208z"/>
	</g>
</g>
<g>
	<g>
		<path fill="#FFE60B" d="M189.77,80.167h-60.125c-2.594,0-4.697,2.103-4.697,4.698c0,2.594,2.103,4.697,4.697,4.697h60.125
			c2.594,0,4.696-2.103,4.696-4.697C194.466,82.27,192.363,80.167,189.77,80.167z"/>
	</g>
</g>
<g>
	<g>
		<path fill="#FFE60B" d="M109.602,200.418c-2.594,0-4.697,2.104-4.697,4.697c0,5.697-4.636,10.334-10.334,10.334
			c-5.698,0-10.334-4.637-10.334-10.334c0-5.699,4.636-10.334,10.334-10.334c2.594,0,4.697-2.104,4.697-4.698
			s-2.103-4.697-4.697-4.697c-10.879,0-19.729,8.851-19.729,19.729c0,10.878,8.851,19.729,19.729,19.729
			c10.878,0,19.729-8.851,19.729-19.729C114.299,202.521,112.196,200.418,109.602,200.418z"/>
	</g>
</g>
<g>
	<g>
		<path fill="#FFE60B" d="M229.854,30.062H59.497c-8.115,0-14.718,6.603-14.718,14.718v210.438c0,8.116,6.603,14.72,14.718,14.72
			h85.178c2.594,0,4.697-2.104,4.697-4.697c0-2.596-2.103-4.698-4.697-4.698H59.497c-2.936,0-5.324-2.388-5.324-5.323V44.781
			c0-2.936,2.388-5.324,5.324-5.324h170.354c2.937,0,5.323,2.388,5.323,5.324v155.324c0,2.595,2.103,4.697,4.697,4.697
			c2.594,0,4.698-2.104,4.698-4.697V44.781C244.57,36.665,237.968,30.062,229.854,30.062z"/>
	</g>
</g>
</svg>
