<?xml version="1.0" encoding="utf-8"?>
<!-- Generator: Adobe Illustrator 16.0.0, SVG Export Plug-In . SVG Version: 6.00 Build 0)  -->
<!DOCTYPE svg PUBLIC "-//W3C//DTD SVG 1.1//EN" "http://www.w3.org/Graphics/SVG/1.1/DTD/svg11.dtd">
<svg version="1.1" id="Layer_1" xmlns="http://www.w3.org/2000/svg" xmlns:xlink="http://www.w3.org/1999/xlink" x="0px" y="0px"
	 width="300px" height="300px" viewBox="0 0 300 300" enable-background="new 0 0 300 300" xml:space="preserve">
<g>
	<g>
		<path fill="#FFE60B" d="M207.979,132.484c-4.365-0.436-8.729,0.803-12.183,3.425c-2.752-4.616-7.442-7.892-12.87-8.435
			c-4.365-0.436-8.729,0.803-12.183,3.424c-2.751-4.615-7.44-7.891-12.869-8.435c-3.334-0.333-6.664,0.31-9.59,1.798V64.443
			c0-4.857-2.065-9.513-5.67-12.773c-3.6-3.258-8.452-4.848-13.312-4.362c-8.672,0.868-15.464,8.709-15.464,17.85v59.971
			l-13.808,13.808c-7.337,7.338-10.299,17.749-7.922,27.851l10.483,44.553c4.247,18.054,20.166,30.661,38.713,30.661h42.367
			c21.931,0,39.771-17.841,39.771-39.771v-51.895C223.443,141.193,216.65,133.354,207.979,132.484z M214.048,202.229
			c0,16.75-13.626,30.377-30.376,30.377h-42.367c-14.165,0-26.324-9.631-29.568-23.42l-10.483-44.554
			c-1.626-6.909,0.4-14.034,5.421-19.055l7.165-7.166v16.219c0,2.595,2.103,4.697,4.698,4.697c2.594,0,4.697-2.104,4.697-4.697
			V65.157c0-4.374,3.076-8.109,7.005-8.501c2.257-0.227,4.415,0.478,6.074,1.979c1.639,1.483,2.579,3.6,2.579,5.808v82.672
			c0,2.594,2.103,4.696,4.697,4.696c2.594,0,4.697-2.103,4.697-4.696V139.6c0-2.207,0.939-4.324,2.578-5.808
			c1.66-1.503,3.818-2.207,6.074-1.979c3.928,0.393,7.006,4.127,7.006,8.502v11.811c0,2.595,2.103,4.697,4.697,4.697
			c2.594,0,4.696-2.104,4.696-4.697v-7.516c0-2.208,0.938-4.325,2.578-5.809c1.661-1.502,3.817-2.206,6.074-1.979
			c3.928,0.394,7.006,4.128,7.006,8.502v11.812c0,2.595,2.103,4.697,4.696,4.697c2.595,0,4.697-2.104,4.697-4.697v-7.516
			c0-2.208,0.939-4.325,2.58-5.809c1.659-1.502,3.814-2.207,6.072-1.979c3.93,0.393,7.006,4.127,7.006,8.501L214.048,202.229
			L214.048,202.229L214.048,202.229z"/>
	</g>
</g>
</svg>
