<?xml version="1.0" encoding="iso-8859-1"?>
<!-- Generator: Adobe Illustrator 19.0.0, SVG Export Plug-In . SVG Version: 6.00 Build 0)  -->
<svg version="1.1" id="Capa_1" xmlns="http://www.w3.org/2000/svg" xmlns:xlink="http://www.w3.org/1999/xlink" x="0px" y="0px"
	 viewBox="0 0 512 512" style="enable-background:new 0 0 512 512;" xml:space="preserve">
<g transform="matrix(1.25 0 0 -1.25 0 45)">
	<g>
		<g>
			<path style="fill:#292F33;" d="M204.8-350.844c-100.534,0-182.044,81.499-182.044,182.033
				c0,100.545,81.51,182.056,182.044,182.056c100.545,0,182.044-81.51,182.044-182.056
				C386.844-269.345,305.345-350.844,204.8-350.844 M204.8,36C91.694,36,0-55.705,0-168.811C0-281.906,91.694-373.6,204.8-373.6
				s204.8,91.694,204.8,204.789C409.6-55.705,317.906,36,204.8,36"/>
			<path style="fill:#292F33;" d="M213.026-38.547c25.748,0,75.844-8.465,75.844-39.515c0-12.698-8.829-23.632-21.868-23.632
				c-14.473,0-24.337,12.345-53.976,12.345c-43.748,0-66.321-37.046-66.321-80.077c0-41.973,22.926-77.961,66.321-77.961
				c29.639,0,41.62,14.802,56.081,14.802c15.895,0,23.29-15.861,23.29-23.973c0-33.872-53.271-41.631-79.371-41.631
				c-71.612,0-121.355,56.798-121.355,129.82C91.671-94.992,141.062-38.547,213.026-38.547"/>
		</g>
	</g>
</g>
<g>
</g>
<g>
</g>
<g>
</g>
<g>
</g>
<g>
</g>
<g>
</g>
<g>
</g>
<g>
</g>
<g>
</g>
<g>
</g>
<g>
</g>
<g>
</g>
<g>
</g>
<g>
</g>
<g>
</g>
</svg>
