<?xml version="1.0" encoding="utf-8"?>
<!-- Generator: Adobe Illustrator 16.0.0, SVG Export Plug-In . SVG Version: 6.00 Build 0)  -->
<!DOCTYPE svg PUBLIC "-//W3C//DTD SVG 1.1//EN" "http://www.w3.org/Graphics/SVG/1.1/DTD/svg11.dtd">
<svg version="1.1" id="Capa_1" xmlns="http://www.w3.org/2000/svg" xmlns:xlink="http://www.w3.org/1999/xlink" x="0px" y="0px"
	 width="300px" height="300px" viewBox="0 0 300 300" enable-background="new 0 0 300 300" xml:space="preserve">
<g>
	<g>
		<path fill="#FFE60B" d="M286.177,292.527L263.761,83.686c-0.374-3.362-3.362-5.978-6.725-5.978h-41.47V65.006
			C215.566,29.141,186.426,0,150.561,0c-35.866,0-65.006,29.141-65.006,65.006v12.702h-42.59c-3.362,0-6.351,2.615-6.725,5.978
			L13.823,292.527c-0.374,1.869,0.374,3.736,1.494,5.23c1.121,1.495,2.989,2.242,4.857,2.242h259.652
			c1.867,0,3.735-0.747,4.856-2.242C285.803,296.264,286.551,294.396,286.177,292.527z M208.842,115.442
			c3.362,0,5.978,2.615,5.978,5.978c0,3.362-2.615,5.978-5.978,5.978s-5.978-2.615-5.978-5.978
			C202.864,118.057,205.479,115.442,208.842,115.442z M99.004,65.006c0-28.394,23.163-51.557,51.557-51.557
			s51.557,23.163,51.557,51.557v12.702H99.004V65.006z M92.279,115.442c3.362,0,5.978,2.615,5.978,5.978
			c0,3.362-2.615,5.978-5.978,5.978s-5.978-2.615-5.978-5.978C86.301,118.057,88.917,115.442,92.279,115.442z M28.02,286.177
			L48.941,90.785h36.613v12.329c-7.472,2.615-12.703,9.714-12.703,17.933c0,10.461,8.593,19.054,19.054,19.054
			s19.054-8.593,19.054-19.054c0-8.219-5.23-15.317-12.703-17.933V90.785h103.113v12.329c-7.471,2.615-12.701,9.714-12.701,17.933
			c0,10.461,8.592,19.054,19.053,19.054s19.054-8.593,19.054-19.054c0-8.219-5.23-15.317-12.702-17.933V90.785h38.107
			l20.922,195.392H28.02z"/>
	</g>
</g>
</svg>
